<?xml version="1.0" encoding="UTF-8" standalone="no"?>
<!DOCTYPE svg PUBLIC "-//W3C//DTD SVG 1.1//EN"
 "http://www.w3.org/Graphics/SVG/1.1/DTD/svg11.dtd">
<!-- Generated by graphviz version 2.40.1 (20161225.0304)
 -->
<!-- Title: dependencies Pages: 1 -->
<svg width="602pt" height="290pt"
 viewBox="0.00 0.00 602.00 290.00" xmlns="http://www.w3.org/2000/svg" xmlns:xlink="http://www.w3.org/1999/xlink">
<g id="graph0" class="graph" transform="scale(1 1) rotate(0) translate(4 286)">
<title>dependencies</title>
<polygon fill="#ffffff" stroke="transparent" points="-4,4 -4,-286 598,-286 598,4 -4,4"/>
<text text-anchor="start" x="276.0091" y="-42.4" font-family="sans-serif" font-weight="bold" font-size="14.00" fill="#000000">Legend</text>
<polygon fill="#ffffb3" stroke="transparent" points="63,-10 63,-30 83,-30 83,-10 63,-10"/>
<text text-anchor="start" x="86.629" y="-15.4" font-family="sans-serif" font-size="14.00" fill="#000000"> &#160;Declarations</text>
<polygon fill="#8dd3c7" stroke="transparent" points="176,-10 176,-30 196,-30 196,-10 176,-10"/>
<text text-anchor="start" x="199.7251" y="-15.4" font-family="sans-serif" font-size="14.00" fill="#000000"> &#160;Module</text>
<polygon fill="#80b1d3" stroke="transparent" points="262,-10 262,-30 282,-30 282,-10 262,-10"/>
<text text-anchor="start" x="285.7812" y="-15.4" font-family="sans-serif" font-size="14.00" fill="#000000"> &#160;Bootstrap</text>
<polygon fill="#fdb462" stroke="transparent" points="359,-10 359,-30 379,-30 379,-10 359,-10"/>
<text text-anchor="start" x="382.6732" y="-15.4" font-family="sans-serif" font-size="14.00" fill="#000000"> &#160;Providers</text>
<polygon fill="#fb8072" stroke="transparent" points="455,-10 455,-30 475,-30 475,-10 455,-10"/>
<text text-anchor="start" x="478.7258" y="-15.4" font-family="sans-serif" font-size="14.00" fill="#000000"> &#160;Exports</text>
<g id="clust1" class="cluster">
<title>cluster_AppModule</title>
<polygon fill="none" stroke="#000000" stroke-dasharray="1,5" points="8,-70 8,-274 272,-274 272,-70 8,-70"/>
</g>
<g id="clust2" class="cluster">
<title>cluster_AppModule_declarations</title>
<polygon fill="none" stroke="#000000" points="16,-78 16,-130 138,-130 138,-78 16,-78"/>
</g>
<g id="clust4" class="cluster">
<title>cluster_AppModule_imports</title>
<polygon fill="none" stroke="#000000" points="146,-78 146,-130 264,-130 264,-78 146,-78"/>
</g>
<g id="clust6" class="cluster">
<title>cluster_AppModule_bootstrap</title>
<polygon fill="none" stroke="#000000" points="78,-214 78,-266 202,-266 202,-214 78,-214"/>
</g>
<g id="clust8" class="cluster">
<title>cluster_TxtImgModule</title>
<polygon fill="none" stroke="#000000" stroke-dasharray="1,5" points="280,-138 280,-206 586,-206 586,-138 280,-138"/>
</g>
<g id="clust9" class="cluster">
<title>cluster_TxtImgModule_declarations</title>
<polygon fill="none" stroke="#000000" points="438,-146 438,-198 578,-198 578,-146 438,-146"/>
</g>
<g id="clust12" class="cluster">
<title>cluster_TxtImgModule_exports</title>
<polygon fill="none" stroke="#000000" points="288,-146 288,-198 430,-198 430,-146 288,-146"/>
</g>
<!-- AppComponent -->
<g id="node1" class="node">
<title>AppComponent</title>
<polygon fill="#ffffb3" stroke="#000000" points="129.9399,-122 24.0601,-122 24.0601,-86 129.9399,-86 129.9399,-122"/>
<text text-anchor="middle" x="77" y="-99.8" font-family="Times,serif" font-size="14.00" fill="#000000">AppComponent</text>
</g>
<!-- AppModule -->
<g id="node2" class="node">
<title>AppModule</title>
<polygon fill="#8dd3c7" stroke="#000000" points="181.6571,-190 178.6571,-194 157.6571,-194 154.6571,-190 98.3429,-190 98.3429,-154 181.6571,-154 181.6571,-190"/>
<text text-anchor="middle" x="140" y="-167.8" font-family="Times,serif" font-size="14.00" fill="#000000">AppModule</text>
</g>
<!-- AppComponent&#45;&gt;AppModule -->
<g id="edge1" class="edge">
<title>AppComponent&#45;&gt;AppModule</title>
<path fill="none" stroke="#000000" d="M113.9457,-122.2228C113.9457,-122.2228 113.9457,-143.7269 113.9457,-143.7269"/>
<polygon fill="#000000" stroke="#000000" points="110.4457,-143.7269 113.9457,-153.7269 117.4457,-143.727 110.4457,-143.7269"/>
</g>
<!-- AppComponent  -->
<g id="node4" class="node">
<title>AppComponent </title>
<polygon fill="#80b1d3" stroke="#000000" points="194.439,-258 85.561,-258 85.561,-222 194.439,-222 194.439,-258"/>
<text text-anchor="middle" x="140" y="-235.8" font-family="Times,serif" font-size="14.00" fill="#000000">AppComponent </text>
</g>
<!-- AppModule&#45;&gt;AppComponent  -->
<g id="edge3" class="edge">
<title>AppModule&#45;&gt;AppComponent </title>
<path fill="none" stroke="#000000" stroke-dasharray="1,5" d="M140,-190.2228C140,-190.2228 140,-211.7269 140,-211.7269"/>
<polygon fill="#000000" stroke="#000000" points="136.5001,-211.7269 140,-221.7269 143.5001,-211.727 136.5001,-211.7269"/>
</g>
<!-- TxtImgModule -->
<g id="node3" class="node">
<title>TxtImgModule</title>
<polygon fill="#8dd3c7" stroke="#000000" points="255.5452,-122 252.5452,-126 231.5452,-126 228.5452,-122 154.4548,-122 154.4548,-86 255.5452,-86 255.5452,-122"/>
<text text-anchor="middle" x="205" y="-99.8" font-family="Times,serif" font-size="14.00" fill="#000000">TxtImgModule</text>
</g>
<!-- TxtImgModule&#45;&gt;AppModule -->
<g id="edge2" class="edge">
<title>TxtImgModule&#45;&gt;AppModule</title>
<path fill="none" stroke="#000000" d="M168.0281,-122.2228C168.0281,-122.2228 168.0281,-143.7269 168.0281,-143.7269"/>
<polygon fill="#000000" stroke="#000000" points="164.5281,-143.7269 168.0281,-153.7269 171.5281,-143.727 164.5281,-143.7269"/>
</g>
<!-- TxtImgComponent  -->
<g id="node6" class="node">
<title>TxtImgComponent </title>
<polygon fill="#fb8072" stroke="#000000" points="422.3269,-190 295.6731,-190 295.6731,-154 422.3269,-154 422.3269,-190"/>
<text text-anchor="middle" x="359" y="-167.8" font-family="Times,serif" font-size="14.00" fill="#000000">TxtImgComponent </text>
</g>
<!-- TxtImgModule&#45;&gt;TxtImgComponent  -->
<g id="edge5" class="edge">
<title>TxtImgModule&#45;&gt;TxtImgComponent </title>
<path fill="none" stroke="#000000" stroke-dasharray="5,2" d="M225.1208,-122.2228C225.1208,-142.3652 225.1208,-172 225.1208,-172 225.1208,-172 285.589,-172 285.589,-172"/>
<polygon fill="#000000" stroke="#000000" points="285.589,-175.5001 295.589,-172 285.5889,-168.5001 285.589,-175.5001"/>
</g>
<!-- TxtImgComponent -->
<g id="node5" class="node">
<title>TxtImgComponent</title>
<polygon fill="#ffffb3" stroke="#000000" points="569.8272,-190 446.1728,-190 446.1728,-154 569.8272,-154 569.8272,-190"/>
<text text-anchor="middle" x="508" y="-167.8" font-family="Times,serif" font-size="14.00" fill="#000000">TxtImgComponent</text>
</g>
<!-- TxtImgComponent&#45;&gt;TxtImgModule -->
<g id="edge4" class="edge">
<title>TxtImgComponent&#45;&gt;TxtImgModule</title>
<path fill="none" stroke="#000000" d="M508,-153.7772C508,-133.6348 508,-104 508,-104 508,-104 265.7154,-104 265.7154,-104"/>
<polygon fill="#000000" stroke="#000000" points="265.7154,-100.5001 255.7154,-104 265.7154,-107.5001 265.7154,-100.5001"/>
</g>
</g>
</svg>
